<svg width="20" height="20" viewBox="0 0 20 20" fill="none" xmlns="http://www.w3.org/2000/svg">
<path fill-rule="evenodd" clip-rule="evenodd" d="M20 10C20 15.5228 15.5228 20 10 20C4.47715 20 0 15.5228 0 10C0 4.47715 4.47715 0 10 0C15.5228 0 20 4.47715 20 10ZM11.1111 5.55556C11.1111 6.16921 10.6137 6.66667 10 6.66667C9.38635 6.66667 8.88889 6.16921 8.88889 5.55556C8.88889 4.94191 9.38635 4.44444 10 4.44444C10.6137 4.44444 11.1111 4.94191 11.1111 5.55556ZM11.1111 15.5556V8.88889H8.88889V15.5556H11.1111Z" fill="#CC1D1B"/>
</svg>
